<?xml version="1.0" encoding="utf-8"?>
<!-- Generator: Adobe Illustrator 18.1.0, SVG Export Plug-In . SVG Version: 6.00 Build 0)  -->
<!DOCTYPE svg PUBLIC "-//W3C//DTD SVG 1.1//EN" "http://www.w3.org/Graphics/SVG/1.1/DTD/svg11.dtd">
<svg version="1.1" id="Lager_1" xmlns="http://www.w3.org/2000/svg" xmlns:xlink="http://www.w3.org/1999/xlink" x="0px" y="0px"
	 width="32px" height="32px" viewBox="-108 10 32 32" enable-background="new -108 10 32 32" xml:space="preserve">
<g>
	<path fill="#EF3E42" d="M-94.2,13.1l-13.4,23.2c-0.4,0.8-0.4,1.8,0,2.6s1.4,1.2,2.2,1.2h26.8c1,0,1.8-0.4,2.2-1.2s0.4-1.8,0-2.6
		l-13.4-23.2c-0.4-0.8-1.4-1.2-2.2-1.2C-93,11.7-93.8,12.3-94.2,13.1z"/>
	<polygon fill="#FFD200" points="-104.8,37 -92,15 -79.2,37 	"/>
	<path d="M-92.6,33.9C-92.8,33.9-92.8,33.9-92.6,33.9c-0.2,0.2-0.2,0.2-0.4,0.2c-0.6,0.4-1.4,0.4-2,0.2c0,0,0,0-0.2,0
		c-0.8-0.8-2-0.8-2.8,0v-2.6l8.2-8.2l-1.6-1.6l-8.4,8.4l1.4,1.4h-1.6l-2.6,4.4h21.2l-2.6-4.4h-2v2.6c-0.8-0.8-2-0.8-3,0
		c0,0,0,0-0.2,0.2c-0.6,0.4-1.2,0.2-1.8-0.2l-0.2-0.2C-91.2,33.5-92,33.5-92.6,33.9z"/>
</g>
</svg>
