<?xml version="1.0" encoding="utf-8"?>
<!-- Generator: Adobe Illustrator 18.1.0, SVG Export Plug-In . SVG Version: 6.00 Build 0)  -->
<!DOCTYPE svg PUBLIC "-//W3C//DTD SVG 1.1//EN" "http://www.w3.org/Graphics/SVG/1.1/DTD/svg11.dtd">
<svg version="1.1" id="Lager_1" xmlns="http://www.w3.org/2000/svg" xmlns:xlink="http://www.w3.org/1999/xlink" x="0px" y="0px"
	 width="32px" height="32px" viewBox="117 17 16 16" enable-background="new 117 17 16 16" xml:space="preserve">
<g>
	<path fill="#EF3E42" d="M126.1,18.6c-0.2-0.4-0.6-0.6-1.1-0.6c-0.5,0-0.9,0.2-1.1,0.6l-6.6,11.5c-0.2,0.4-0.2,0.9,0,1.3
		c0.2,0.4,0.6,0.6,1.1,0.6h13.2c0.5,0,0.9-0.2,1.1-0.6s0.2-0.9,0-1.3L126.1,18.6z"/>
	<polygon fill="#FFD200" points="118.7,30.5 125,19.7 131.3,30.5 	"/>
	<path d="M124.1,26.8c0,0.4,0.4,0.7,0.9,0.7c0.2,0,0.5-0.1,0.6-0.2c0.2-0.1,0.3-0.3,0.3-0.5v-3.5c0-0.2-0.1-0.4-0.3-0.5
		c-0.2-0.1-0.4-0.2-0.6-0.2c-0.2,0-0.5,0.1-0.6,0.2c-0.2,0.1-0.3,0.3-0.3,0.5V26.8z"/>
	<path d="M124.1,29.3c0,0.4,0.4,0.7,0.9,0.7c0.2,0,0.5-0.1,0.6-0.2c0.2-0.1,0.3-0.3,0.3-0.5V29c0-0.2-0.1-0.4-0.3-0.5
		c-0.2-0.1-0.4-0.2-0.6-0.2c-0.2,0-0.5,0.1-0.6,0.2c-0.2,0.1-0.3,0.3-0.3,0.5V29.3z"/>
</g>
</svg>
