<?xml version="1.0" encoding="utf-8"?>
<!-- Generator: Adobe Illustrator 18.1.0, SVG Export Plug-In . SVG Version: 6.00 Build 0)  -->
<!DOCTYPE svg PUBLIC "-//W3C//DTD SVG 1.1//EN" "http://www.w3.org/Graphics/SVG/1.1/DTD/svg11.dtd">
<svg version="1.1" id="Lager_1" xmlns="http://www.w3.org/2000/svg" xmlns:xlink="http://www.w3.org/1999/xlink" x="0px" y="0px"
	 width="32px" height="32px" viewBox="117 17 16 16" enable-background="new 117 17 16 16" xml:space="preserve">
<g id="Lager_2">
	<rect x="117" y="17" fill="#EFD93A" width="16" height="16"/>
</g>
<g id="Layer_1">
	<path d="M121.6,25h-0.5l-0.1,1.8h-2.6l1.1,1.6c0.4-0.3,0.9-0.3,1.4-0.1c0.4,0.2,0.9,0.2,1.3,0c0.4-0.2,0.9-0.2,1.3,0
		c0.4,0.2,0.9,0.2,1.3,0c0.4-0.2,0.9-0.2,1.3,0c0.4,0.2,0.9,0.2,1.3,0c0.4-0.2,0.9-0.2,1.3,0c0.4,0.2,0.9,0.2,1.3,0
		c0.5-0.2,1-0.2,1.5,0.1c0.2-0.4,0.2-0.8,0.2-1.2h-0.9l-0.2-0.4h-0.6v-5h-0.4v5h-0.4l-0.2-0.7h-4.1l0.5-1.7h-1.1l-0.5,1.7h-1
		l-0.1-1.2H122v-3.5h-0.4L121.6,25z"/>
</g>
</svg>
