<?xml version="1.0" encoding="utf-8"?>
<!-- Generator: Adobe Illustrator 19.2.0, SVG Export Plug-In . SVG Version: 6.00 Build 0)  -->
<svg version="1.1" id="Lager_1" xmlns="http://www.w3.org/2000/svg" xmlns:xlink="http://www.w3.org/1999/xlink" x="0px" y="0px"
	 viewBox="0 0 16 16" style="enable-background:new 0 0 16 16;" xml:space="preserve">
<style type="text/css">
	.st0{fill:#EB0029;}
	.st1{fill:#FFCE00;}
</style>
<circle class="st0" cx="8" cy="8" r="8"/>
<circle class="st1" cx="8" cy="8" r="6.1"/>
<polygon points="8,6.9 9.9,5 6.1,5 "/>
<path d="M8.8,8.9C8.7,9.2,8.3,9.3,8,9.3c-0.3,0-0.7-0.2-0.8-0.4L4.3,8.7v1.4c0,0.2-0.1,0.3-0.2,0.5c-0.1,0.1-0.3,0.2-0.5,0.2H3.6
	c-0.2,0-0.3-0.1-0.5-0.2c-0.1-0.1-0.2-0.3-0.2-0.5V6.5C2.9,6.3,3,6.1,3.1,6c0.1-0.1,0.3-0.2,0.5-0.2h0.1C3.8,5.8,4,5.9,4.1,6
	c0.1,0.1,0.2,0.3,0.2,0.5v1.4l2.8-0.2C7.3,7.4,7.7,7.3,8,7.3c0.3,0,0.7,0.2,0.8,0.4l2.8,0.2V6.5c0-0.2,0.1-0.3,0.2-0.5
	c0.1-0.1,0.3-0.2,0.5-0.2h0.1c0.2,0,0.3,0.1,0.5,0.2c0.1,0.1,0.2,0.3,0.2,0.5v3.6c0,0.2-0.1,0.3-0.2,0.5c-0.1,0.1-0.3,0.2-0.5,0.2
	h-0.1c-0.4,0-0.6-0.3-0.6-0.6V8.7L8.8,8.9z"/>
</svg>
