<?xml version="1.0" encoding="utf-8"?>
<!-- Generator: Adobe Illustrator 18.1.0, SVG Export Plug-In . SVG Version: 6.00 Build 0)  -->
<!DOCTYPE svg PUBLIC "-//W3C//DTD SVG 1.1//EN" "http://www.w3.org/Graphics/SVG/1.1/DTD/svg11.dtd">
<svg version="1.1" id="Lager_1" xmlns="http://www.w3.org/2000/svg" xmlns:xlink="http://www.w3.org/1999/xlink" x="0px" y="0px"
	 width="32px" height="32px" viewBox="117 17 16 16" enable-background="new 117 17 16 16" xml:space="preserve">
<g>
	<path fill="#EF3E42" d="M118.3,32.1c-0.5,0-0.9-0.2-1.1-0.6s-0.2-0.9,0-1.3l6.7-11.6c0.2-0.4,0.7-0.6,1.1-0.6
		c0.5,0,0.9,0.2,1.1,0.6l6.7,11.6c0.2,0.4,0.2,0.9,0,1.3c-0.2,0.4-0.7,0.6-1.1,0.6L118.3,32.1L118.3,32.1z"/>
	<polygon fill="#FFD200" points="118.6,30.6 131.4,30.6 125,19.6 	"/>
	<path d="M130.1,29.8V30h-10.3l0-0.1c0-0.1,0.1-0.2,0.1-0.4c0-0.1,0.1-0.2,0.1-0.3c0-0.1,0.1-0.1,0.1-0.2c0,0,0,0,0,0l0,0l0.1-0.2
		c0,0,0-0.1,0.1-0.1c0,0,0.1-0.1,0.1-0.1c0.1-0.1,0.1-0.1,0.2-0.2c0-0.1,0.1-0.1,0.2-0.2c0,0,0.1-0.1,0.1-0.1c0,0,0.1-0.1,0.1-0.1
		c0-0.1,0.1-0.2,0.2-0.2c0.1-0.1,0.2-0.1,0.4-0.1c0.1,0,0.1,0,0.2,0.1c0.1,0.1,0.2,0.1,0.3,0.2l0.1,0c0.3-0.1,0.5-0.3,0.8-0.4l0.1,0
		l0.1-0.1l0.1-0.1l0.1-0.1c0.2-0.1,0.4-0.2,0.6-0.3l0.1-0.1l0.2-0.2c0,0,0,0,0-0.1c0-0.1,0-0.1,0-0.2c0-0.1,0-0.2,0-0.3
		c0-0.1,0-0.2,0-0.2c0-0.1,0-0.2,0-0.4c0,0,0-0.1,0-0.1c0,0,0,0,0-0.1l-0.1-0.3l-0.2-0.3c0-0.1-0.1-0.1-0.1-0.2s0-0.1,0-0.2
		c0,0,0-0.1,0-0.1c0,0,0-0.1,0-0.1c0,0,0,0-0.1,0c0,0-0.1,0-0.1,0c-0.1-0.1-0.1-0.2-0.2-0.3c0,0,0-0.1,0-0.1c0,0,0-0.1,0-0.1
		c0,0-0.1-0.1-0.1-0.2c0-0.1,0-0.1,0-0.2c0-0.1,0.1-0.1,0.1-0.2c0.1,0,0.1-0.1,0.2-0.1c0.1,0,0.2,0,0.2-0.1c0,0,0.1,0,0.1,0
		c0,0,0.1,0.1,0.1,0.1c0,0,0.1,0.1,0.1,0.1c0,0,0,0.1,0,0.2c0,0,0,0.1,0,0.1c0,0.1,0,0.1,0.1,0.2c0,0,0,0.1,0.1,0.1
		c0,0,0.1,0.1,0.1,0.1c0,0,0.1,0,0.1,0c0.1,0,0.1,0,0.2,0c0.1,0,0.1,0,0.2,0c0.1,0,0.2-0.1,0.3-0.1c0.1,0,0.1,0,0.2,0
		c0.4,0.1,0.7,0.2,1,0.4c0,0,0.1,0,0.1,0.1c0,0,0.1,0.1,0.1,0.1c0,0.1,0,0.1,0,0.2c0,0.2,0,0.3,0.1,0.5c0,0.1,0.1,0.2,0.1,0.3
		c0,0,0,0,0.1,0.1c0.1,0,0.1,0.1,0.1,0.1c0,0.1,0,0.1,0,0.2c0,0-0.1,0-0.1,0.1c0,0-0.1,0-0.1,0c0,0,0,0,0,0l0,0.7l0,0.5l0,0.3l0,0.2
		l0,0.2l0,0.2c0,0.2,0,0.4,0,0.6c0,0.1,0,0.2,0,0.3l0,0.3l0,0.3l0,0.3l0,0.1c0,0.1,0,0.1,0.1,0.1h0l0.1-0.1c0,0,0-0.1,0-0.1
		c0,0,0-0.1,0-0.1c0,0,0-0.1,0-0.1c0,0,0,0,0,0l0.1,0l0.1,0c0.1,0,0.2-0.1,0.2-0.2c0,0,0,0,0,0c0,0,0.1,0,0.1,0c0.1,0,0.1,0,0.1,0
		c0,0,0.1,0.1,0.1,0.1c0.1,0.3,0.3,0.5,0.5,0.7c0,0,0.1,0.1,0.1,0.1L130.1,29.8L130.1,29.8z"/>
	<path fill="#FFD200" d="M122.1,28L122.1,28l0.2,0c0.1,0,0.2-0.1,0.3-0.1c0.1,0,0.1-0.1,0.2-0.1c0.1,0,0.2-0.1,0.2-0.2l0.1-0.1
		l0.1-0.1l0.1-0.1l0.1-0.1l0.1,0l0.1,0l0.1,0l0.1,0l0.1,0l0.1,0l0.1,0l0,0l0,0l0.1,0l0.2,0.5l0,0l0,0l0.1,0.2l0.1,0.3l0,0.2l0,0.1
		l0.1,0.3l0,0.1c0,0,0,0.1,0.1,0.1c0,0,0,0,0,0c0,0,0.1,0,0.1,0c0,0,0.1,0,0.1,0c0,0,0.1,0.1,0.1,0.2c0,0,0,0,0,0l-0.1,0.1l0,0
		l-0.2,0.1c0,0,0,0,0,0l0,0.1l-0.1,0c-0.1,0-0.3,0-0.4,0c-0.1,0-0.2,0-0.3,0.1c-0.1,0-0.2,0-0.3,0c-0.1,0-0.1,0-0.2,0
		c0,0-0.1,0-0.1,0c-0.1,0-0.1,0-0.2-0.1c0,0-0.1-0.1-0.1-0.1l-0.1-0.1l-0.1-0.1l-0.1-0.1l-0.1-0.1l-0.1-0.1l0-0.1l-0.1-0.1l0-0.1
		l0-0.1l0,0C122.4,28.2,122.2,28.1,122.1,28L122.1,28z"/>
	<path fill="#FFD200" d="M125,29.5l0.3-0.2l0,0l0.1,0l0.1,0l0.2-0.1l0,0c0-0.1,0-0.1-0.1-0.2c0-0.1-0.1-0.1-0.1-0.2c0,0,0-0.1,0-0.1
		c0-0.2,0-0.3-0.1-0.5c0-0.2-0.1-0.3-0.2-0.5c0-0.1,0-0.2-0.1-0.2c0,0,0,0,0-0.1c0,0,0,0,0,0l0.1-0.1l0.1-0.1l0.1-0.1l0.1-0.1
		l0.1-0.1l0.2-0.2l0,0l0,0c0,0,0,0,0-0.1c0,0,0,0,0,0l0.1-0.1l0.1,0c0,0,0,0,0.1,0c0,0,0,0.1,0.1,0.1l0,0.1l0,0.1l0,0.2
		c0,0.1,0,0.2,0,0.3c0,0.1,0,0.2,0,0.2c0,0,0,0.1,0.1,0.1c0.1,0.1,0.1,0.2,0.1,0.3c0,0.1,0,0.2,0,0.2c0,0.1,0,0.2,0,0.4
		c0,0.1,0,0.1,0,0.2c0,0,0,0,0,0c0,0,0,0,0,0h0.1c0,0,0,0,0,0c0,0.1,0,0.2,0,0.3c0,0,0,0.1-0.1,0.1c0,0-0.1,0-0.1,0
		c0,0-0.1,0-0.1,0.1c0,0,0,0,0,0.1c0,0,0,0.1-0.1,0.1c0,0-0.1,0-0.1,0c-0.1,0-0.1,0-0.2,0l-0.2,0l-0.2,0l-0.2,0l-0.1,0l-0.2,0
		l-0.1,0L125,29.5L125,29.5z"/>
	<path fill="#FFD200" d="M126.2,24.2l0.1,0l0.1,0l0.2,0c0,0,0,0,0,0l0,0.1l0,0.1l0,0.1l0,0.1l0,0.1l0,0.1l0,0.1l0,0.1l0,0.1l0,0
		c0,0,0,0,0,0.1s0,0,0,0c0,0,0,0,0,0l-0.1-0.1l-0.1-0.1l0-0.1l0-0.1l0-0.1c0,0,0-0.1-0.1-0.1l-0.1-0.1l-0.1-0.1L126.2,24.2
		C126.1,24.2,126.1,24.2,126.2,24.2C126.1,24.2,126.1,24.2,126.2,24.2L126.2,24.2C126.1,24.2,126.1,24.2,126.2,24.2z"/>
	<path fill="none" stroke="#000000" stroke-width="0.1764" stroke-linecap="round" stroke-linejoin="round" d="M124.7,26.2
		C124.7,26.2,124.7,26.2,124.7,26.2"/>
	<path fill="#FFD200" d="M124.8,26.2C124.8,26.2,124.8,26.2,124.8,26.2c0.1-0.1,0.1-0.1,0.2-0.2c0,0,0.1-0.1,0.1-0.1
		c0,0,0-0.1,0.1-0.1c0,0,0-0.1,0.1-0.1c0,0,0.1-0.1,0.1-0.2c0,0,0-0.1,0-0.1c0,0,0-0.1,0-0.1c0,0,0,0,0,0c0,0,0,0,0-0.1l-0.1-0.1
		l-0.1-0.1c0,0,0,0-0.1,0c0,0,0,0,0,0l0,0.1c0,0,0,0,0,0.1c0,0,0,0.1,0,0.1c0,0.1,0,0.1,0,0.2c0,0.1-0.1,0.2-0.1,0.3l0,0.1
		L124.8,26.2C124.7,26.1,124.7,26.1,124.8,26.2C124.7,26.2,124.7,26.2,124.8,26.2z"/>
</g>
</svg>
