<?xml version="1.0" encoding="utf-8"?>
<!-- Generator: Adobe Illustrator 18.1.0, SVG Export Plug-In . SVG Version: 6.00 Build 0)  -->
<!DOCTYPE svg PUBLIC "-//W3C//DTD SVG 1.1//EN" "http://www.w3.org/Graphics/SVG/1.1/DTD/svg11.dtd">
<svg version="1.1" id="Lager_1" xmlns="http://www.w3.org/2000/svg" xmlns:xlink="http://www.w3.org/1999/xlink" x="0px" y="0px"
	 width="32px" height="32px" viewBox="117 17 16 16" enable-background="new 117 17 16 16" xml:space="preserve">
<g>
	<path fill="#EF3E42" d="M126.1,18.5c-0.2-0.4-0.7-0.6-1.1-0.6s-0.9,0.2-1.1,0.6l-6.7,11.6c-0.2,0.4-0.2,0.9,0,1.3
		c0.2,0.4,0.7,0.6,1.1,0.6h13.4c0.5,0,0.9-0.2,1.1-0.6c0.2-0.4,0.2-0.9,0-1.3L126.1,18.5z"/>
	<polygon fill="#FFD200" points="118.6,30.6 125,19.6 131.4,30.6 	"/>
	<path d="M124.1,28.7c0,0.5,0.4,0.9,0.9,0.9c0.2,0,0.5-0.1,0.6-0.3c0.2-0.2,0.3-0.4,0.3-0.6v-5.2c0-0.2-0.1-0.5-0.3-0.6
		c-0.2-0.2-0.4-0.3-0.6-0.3c-0.2,0-0.5,0.1-0.6,0.3c-0.2,0.2-0.3,0.4-0.3,0.6V28.7z"/>
</g>
</svg>
