<?xml version="1.0" encoding="utf-8"?>
<!-- Generator: Adobe Illustrator 18.1.0, SVG Export Plug-In . SVG Version: 6.00 Build 0)  -->
<!DOCTYPE svg PUBLIC "-//W3C//DTD SVG 1.1//EN" "http://www.w3.org/Graphics/SVG/1.1/DTD/svg11.dtd">
<svg version="1.1" id="Lager_1" xmlns="http://www.w3.org/2000/svg" xmlns:xlink="http://www.w3.org/1999/xlink" x="0px" y="0px"
	 width="32px" height="32px" viewBox="117 17 16 16" enable-background="new 117 17 16 16" xml:space="preserve">
<g>
	<path fill="#EF3E42" d="M131.7,32.1h-13.4c-0.5,0-0.9-0.2-1.1-0.6s-0.2-0.9,0-1.3l6.7-11.6c0.2-0.4,0.7-0.6,1.1-0.6
		c0.5,0,0.9,0.2,1.1,0.6l6.7,11.6c0.2,0.4,0.2,0.9,0,1.3C132.6,31.9,132.2,32.1,131.7,32.1z"/>
	<polygon fill="#FFD200" points="118.6,30.6 125,19.6 131.4,30.6 	"/>
	<path d="M126.6,29h0.8h0.7v0.2c0,0.2,0.2,0.3,0.3,0.3c0.2,0,0.3-0.2,0.3-0.3v-0.4l0.1-0.5c0.1-0.3,0-0.6-0.3-0.8l-0.4-0.8
		c0-0.1-0.1-0.2-0.2-0.2c-0.3-0.1-0.6-0.1-1-0.1l-0.3-0.6c0-0.1-0.1-0.2-0.2-0.2c-0.3-0.1-0.6-0.1-1-0.1l-0.3-0.6
		c0-0.1-0.1-0.2-0.2-0.2c-0.6-0.2-1.3-0.2-1.9,0c-0.1,0-0.2,0.1-0.2,0.2l-0.4,0.8c-0.2,0.2-0.3,0.5-0.3,0.8l0.1,0.5v0.4
		c0,0.1,0.1,0.2,0.2,0.3c0.1,0.1,0.2,0.1,0.3,0c0.1-0.1,0.2-0.2,0.2-0.3v-0.2h0.7c0,0.1,0,0.1,0,0.2l0.1,0.5v0.4
		c0,0.1,0.1,0.2,0.2,0.3c0.1,0.1,0.2,0.1,0.3,0c0.1-0.1,0.2-0.2,0.2-0.3v-0.2h0.7c0,0.1,0,0.1,0,0.2l0.1,0.5v0.4
		c0,0.1,0.1,0.2,0.2,0.3c0.1,0.1,0.2,0.1,0.3,0s0.2-0.2,0.2-0.3V29L126.6,29L126.6,29z"/>
	<path fill="#FFD200" d="M125.9,26.7c0,0,0.1-0.1,0.1-0.1c0.2,0,0.4-0.1,0.5-0.1l-0.2-0.4c-0.6-0.1-1.2-0.1-1.7,0l-0.3,0.6
		C124.3,26.7,125.9,26.7,125.9,26.7z"/>
	<path fill="#FFD200" d="M126.1,27l-0.3,0.6h2.3l-0.3-0.6C127.3,26.8,126.7,26.8,126.1,27z"/>
	<path fill="#FFD200" d="M124.4,25.8c0,0,0.1-0.1,0.1-0.1c0.2,0,0.4-0.1,0.5-0.1l-0.2-0.4c-0.6-0.1-1.2-0.1-1.7,0l-0.3,0.6
		C122.8,25.8,124.4,25.8,124.4,25.8z"/>
</g>
</svg>
